<svg height="512" viewBox="0 0 512 512" width="512" xmlns="http://www.w3.org/2000/svg"><g id="flat"><path d="m64 336v104h144v-104l4.157-5.543a99.213 99.213 0 0 0 19.843-59.528v-102.929l-152-4z" fill="#fdc9a6"/><path d="m232 168v44a20 20 0 0 1 -32-16v-28.84z" fill="#e6af89"/><path d="m472.231 104.254-97.039 97.038-97.038-97.038a47.012 47.012 0 0 1 -13.769-33.242 47.011 47.011 0 0 1 47.015-47.012 47.014 47.014 0 0 1 33.243 13.769l30.553 30.554 30.554-30.554a47.012 47.012 0 0 1 33.238-13.769 47.012 47.012 0 0 1 47.012 47.012 47.012 47.012 0 0 1 -13.769 33.242z" fill="#cbcbcb"/><rect fill="#e6af89" height="72" rx="20" width="40" x="80" y="120"/><rect fill="#e6af89" height="72" rx="20" width="40" x="120" y="128"/><rect fill="#e6af89" height="72" rx="20" width="40" x="160" y="136"/><path d="m72 320c-25.612-25.612-40-44.348-40-80.568v-6.62a136.519 136.519 0 0 1 4.078-33.122l3.922-15.69 5.373-37.609a21.419 21.419 0 0 1 21.204-18.391 21.422 21.422 0 0 1 21.423 21.421v74.579l20 10a79.608 79.608 0 0 1 44 71.2v14.8z" fill="#e6af89"/><path d="m184 248h-88a8 8 0 0 1 0-16h88a8 8 0 0 1 0 16z" fill="#e6af89"/><path d="m430 108.685a100.061 100.061 0 0 1 -55.134-5.528 100.041 100.041 0 0 0 -64.866-3.244l64 62.405z" fill="#e82f3e"/><path d="m196 496a68.077 68.077 0 0 1 -68-68v-20a8 8 0 0 1 16 0v20a52 52 0 0 0 104 0 68.077 68.077 0 0 1 68-68 52.059 52.059 0 0 0 52-52v-76a8 8 0 0 1 16 0v76a68.077 68.077 0 0 1 -68 68 52.059 52.059 0 0 0 -52 52 68.077 68.077 0 0 1 -68 68z" fill="#e82f3e"/><path d="m406 88a8 8 0 0 1 -5.657-13.657l8-8a8 8 0 0 1 11.314 11.314l-8 8a7.974 7.974 0 0 1 -5.657 2.343z" fill="#fdfefb"/><path d="m430 64a8 8 0 0 1 -5.657-13.657l8-8a8 8 0 0 1 11.314 11.314l-8 8a7.974 7.974 0 0 1 -5.657 2.343z" fill="#fdfefb"/><path d="m408 296a8 8 0 0 1 -8-8v-24a8 8 0 0 1 16 0v24a8 8 0 0 1 -8 8z" fill="#fbb540"/><path d="m408 336a8 8 0 0 1 -8-8v-8a8 8 0 0 1 16 0v8a8 8 0 0 1 -8 8z" fill="#fbb540"/><g fill="#fdc9a6"><path d="m64 336a136.567 136.567 0 0 1 -40-96.568v-6.62a136.519 136.519 0 0 1 4.078-33.122l3.922-15.69 5.373-37.609a21.419 21.419 0 0 1 21.204-18.391 21.422 21.422 0 0 1 21.423 21.421v74.579l20 10a79.608 79.608 0 0 1 44 71.2v14.8z"/><rect height="72" rx="20" width="40" x="80" y="112"/><rect height="72" rx="20" width="40" x="120" y="120"/><rect height="72" rx="20" width="40" x="160" y="128"/><rect height="72" rx="20" width="40" x="200" y="136"/></g><path d="m104 376h64v32h-64z" fill="#961b20"/><path d="m360.385 184h32v48h-32z" fill="#cbcbcb"/></g></svg>