<svg xmlns="http://www.w3.org/2000/svg" xmlns:xlink="http://www.w3.org/1999/xlink" width="499.733" height="382.863" viewBox="0 0 499.733 382.863">
  <defs>
    <linearGradient id="linear-gradient" x1="0.5" y1="1" x2="0.5" gradientUnits="objectBoundingBox">
      <stop offset="0" stop-color="gray" stop-opacity="0.251"/>
      <stop offset="0.54" stop-color="gray" stop-opacity="0.122"/>
      <stop offset="1" stop-color="gray" stop-opacity="0.102"/>
    </linearGradient>
    <linearGradient id="linear-gradient-2" x1="3.193" x2="3.193" y2="0" xlink:href="#linear-gradient"/>
  </defs>
  <g id="login-slider-1" transform="translate(0.003 0.002)">
    <ellipse id="Ellipse_62" data-name="Ellipse 62" cx="50.624" cy="12.656" rx="50.624" ry="12.656" transform="translate(320.823 349.837)" fill="#313896" opacity="0.1"/>
    <path id="Path_1094" data-name="Path 1094" d="M43.858,276.446c-5.727,1.963-12.678,5.967-11.506,12.332.586,3.226,3.2,5.618,5.683,7.637A161.01,161.01,0,0,0,72.729,317.9c5.932,2.693,12.241,5.163,16.722,10.129s6.558,11.908,8.013,18.6a151.2,151.2,0,0,1,2.5,48.268c17.885.341,37.688-.061,50.344-12.945,7.576-7.716,11.637-19.161,20.547-25.133,5.941-3.983,13.264-4.971,20.337-5.8q50.218-5.871,100.955-7.108c14.173-.345,28.656-.468,41.889-5.408s25.246-15.738,27.935-30.379c.415-2.256.686-4.743,2.23-6.317,1.377-1.412,3.441-1.749,5.368-2l116.239-15.738c6.365-.874,12.953-1.805,18.313-5.4,5.185-3.5,8.682-9.084,12.027-14.531,7.664-12.468,15.616-27.542,10.308-41.8-4.245-11.393-15.655-17.954-26.558-22.029s-22.641-6.938-31.5-14.925c-13.482-12.153-16.472-32.329-20.271-50.432A295.274,295.274,0,0,0,433.7,86.916c-5.438-13.7-12.062-27.2-21.933-37.867S388.312,30.828,374.489,31.37c-18.055.717-33.937,14.789-52.023,13.041-15.275-1.465-27.7-13.705-41.457-21.321-24.416-13.53-53.234-12.341-79.949-8.123-28.329,4.463-56.832,12.276-79.783,29.845-5.246,4.022-10.265,8.665-13.347,14.715-4.721,9.281-4.315,20.591-6.68,30.9-9.53,41.531-60.626,58.856-71.132,100.085-3.733,14.636-.971,30.51,5.88,44.036,7.366,14.562,22.164,20.77,29.749,33.269C60.676,272.45,50.573,274.142,43.858,276.446Z" transform="translate(-28.45 -12.11)" fill="#313896" opacity="0.1"/>
    <path id="Path_1095" data-name="Path 1095" d="M897.658,724.777s-4.582-31.563,9.18-52.338A48.307,48.307,0,0,0,915,642.983a81.059,81.059,0,0,0-2.23-14.693" transform="translate(-517.258 -358.918)" fill="none" stroke="#535461" stroke-miterlimit="10" stroke-width="2"/>
    <path id="Path_1096" data-name="Path 1096" d="M935.572,588.217c-.529,3.712-8.792,13.513-8.792,13.513s-5.163-11.729-4.647-15.441a6.789,6.789,0,1,1,13.44,1.928Z" transform="translate(-531.425 -331.999)" fill="#313896"/>
    <path id="Path_1097" data-name="Path 1097" d="M952.638,634.378c-2.466,2.824-14.728,6.558-14.728,6.558s2.028-12.678,4.49-15.484a6.79,6.79,0,1,1,10.238,8.922Z" transform="translate(-540.325 -356.009)" fill="#313896"/>
    <path id="Path_1098" data-name="Path 1098" d="M938.367,712.205c-3.554,1.2-16.027-1.749-16.027-1.749s8.14-9.906,11.694-11.1a6.789,6.789,0,0,1,4.332,12.848Z" transform="translate(-531.562 -398.775)" fill="#313896"/>
    <path id="Path_1099" data-name="Path 1099" d="M915.042,771.173c-3.3,1.779-16.092.962-16.092.962S905.3,761,908.6,759.221a6.789,6.789,0,0,1,6.444,11.952Z" transform="translate(-518.397 -432.152)" fill="#313896"/>
    <path id="Path_1100" data-name="Path 1100" d="M903.574,646.81c2.291,2.969,14.313,7.432,14.313,7.432s-1.277-12.757-3.567-15.738a6.791,6.791,0,1,0-10.745,8.306Z" transform="translate(-520.201 -363.182)" fill="#313896"/>
    <path id="Path_1101" data-name="Path 1101" d="M875.379,713.791c3.06,2.146,15.874,2.8,15.874,2.8s-5.027-11.8-8.105-13.937a6.789,6.789,0,1,0-7.769,11.135Z" transform="translate(-503.495 -400.086)" fill="#313896"/>
    <path id="Path_1102" data-name="Path 1102" d="M860.15,785.131c2.667,2.623,15.174,5.443,15.174,5.443s-2.964-12.473-5.635-15.1a6.789,6.789,0,1,0-9.539,9.662Z" transform="translate(-495.422 -440.658)" fill="#313896"/>
    <path id="Path_1103" data-name="Path 1103" d="M935.572,588.217c-.529,3.712-8.792,13.513-8.792,13.513s-5.163-11.729-4.647-15.441a6.789,6.789,0,1,1,13.44,1.928Z" transform="translate(-531.425 -331.999)" opacity="0.25"/>
    <path id="Path_1104" data-name="Path 1104" d="M952.638,634.378c-2.466,2.824-14.728,6.558-14.728,6.558s2.028-12.678,4.49-15.484a6.79,6.79,0,1,1,10.238,8.922Z" transform="translate(-540.325 -356.009)" opacity="0.25"/>
    <path id="Path_1105" data-name="Path 1105" d="M938.367,712.205c-3.554,1.2-16.027-1.749-16.027-1.749s8.14-9.906,11.694-11.1a6.789,6.789,0,0,1,4.332,12.848Z" transform="translate(-531.562 -398.775)" opacity="0.25"/>
    <path id="Path_1106" data-name="Path 1106" d="M915.042,771.173c-3.3,1.779-16.092.962-16.092.962S905.3,761,908.6,759.221a6.789,6.789,0,0,1,6.444,11.952Z" transform="translate(-518.397 -432.152)" opacity="0.25"/>
    <path id="Path_1107" data-name="Path 1107" d="M903.574,646.81c2.291,2.969,14.313,7.432,14.313,7.432s-1.277-12.757-3.567-15.738a6.791,6.791,0,1,0-10.745,8.306Z" transform="translate(-520.201 -363.182)" opacity="0.25"/>
    <path id="Path_1108" data-name="Path 1108" d="M875.379,713.791c3.06,2.146,15.874,2.8,15.874,2.8s-5.027-11.8-8.105-13.937a6.789,6.789,0,1,0-7.769,11.135Z" transform="translate(-503.495 -400.086)" opacity="0.25"/>
    <path id="Path_1109" data-name="Path 1109" d="M860.15,785.131c2.667,2.623,15.174,5.443,15.174,5.443s-2.964-12.473-5.635-15.1a6.789,6.789,0,1,0-9.539,9.662Z" transform="translate(-495.422 -440.658)" opacity="0.25"/>
    <path id="Path_1110" data-name="Path 1110" d="M866.956,725.245s-16.98-27-12.8-51.586a48.308,48.308,0,0,0-4.455-30.23,81.1,81.1,0,0,0-8-12.529" transform="translate(-486.181 -360.387)" fill="none" stroke="#535461" stroke-miterlimit="10" stroke-width="2"/>
    <path id="Path_1111" data-name="Path 1111" d="M830.367,589.043c1.014,3.611-2.566,15.917-2.566,15.917s-9.487-8.621-10.492-12.241a6.791,6.791,0,1,1,13.071-3.69Z" transform="translate(-472.302 -334.036)" fill="#313896"/>
    <path id="Path_1112" data-name="Path 1112" d="M868.1,622.865c-1.106,3.58-10.8,11.965-10.8,11.965s-3.279-12.389-2.186-15.974a6.79,6.79,0,1,1,12.975,4.009Z" transform="translate(-493.599 -350.914)" fill="#313896"/>
    <path id="Path_1113" data-name="Path 1113" d="M886.286,697.47c-2.763,2.531-15.366,4.875-15.366,4.875s3.427-12.35,6.19-14.864a6.792,6.792,0,1,1,9.181,10.011Z" transform="translate(-502.621 -391.227)" fill="#313896"/>
    <path id="Path_1114" data-name="Path 1114" d="M890.132,761.261c-2.3,2.964-14.322,7.4-14.322,7.4s1.311-12.752,3.585-15.738a6.789,6.789,0,1,1,10.737,8.306Z" transform="translate(-505.373 -427.511)" fill="#313896"/>
    <path id="Path_1115" data-name="Path 1115" d="M824.892,655.571c3.3,1.788,16.088.988,16.088.988s-6.33-11.143-9.618-12.927a6.79,6.79,0,1,0-6.47,11.939Z" transform="translate(-474.713 -367.09)" fill="#313896"/>
    <path id="Path_1116" data-name="Path 1116" d="M826.047,728.2c3.681.717,15.651-3.869,15.651-3.869s-9.377-8.743-13.058-9.456a6.789,6.789,0,1,0-2.592,13.325Z" transform="translate(-474.186 -407.563)" fill="#313896"/>
    <path id="Path_1117" data-name="Path 1117" d="M841.657,799.773c3.5,1.311,16.079-1.176,16.079-1.176s-7.764-10.195-11.27-11.524a6.789,6.789,0,0,0-4.809,12.678Z" transform="translate(-483.872 -448.104)" fill="#313896"/>
    <path id="Path_1118" data-name="Path 1118" d="M285.63,57.83v308.4H507.449V57.83Z" transform="translate(-160.764 -32.551)" fill="url(#linear-gradient)"/>
    <rect id="Rectangle_876" data-name="Rectangle 876" width="217.928" height="11.755" transform="translate(126.812 27.986)" fill="#f6f7f9"/>
    <g id="Group_43" data-name="Group 43" transform="translate(126.812 27.986)" opacity="0.2">
      <rect id="Rectangle_877" data-name="Rectangle 877" width="217.928" height="11.755" fill="#313896"/>
    </g>
    <rect id="Rectangle_878" data-name="Rectangle 878" width="217.928" height="291.237" transform="translate(126.812 39.741)" fill="#f6f7f9"/>
    <circle id="Ellipse_63" data-name="Ellipse 63" cx="1.993" cy="1.993" r="1.993" transform="translate(130.55 31.872)" fill="#f6f7f9"/>
    <circle id="Ellipse_64" data-name="Ellipse 64" cx="1.993" cy="1.993" r="1.993" transform="translate(135.953 31.872)" fill="#f6f7f9"/>
    <circle id="Ellipse_65" data-name="Ellipse 65" cx="1.993" cy="1.993" r="1.993" transform="translate(141.356 31.872)" fill="#f6f7f9"/>
    <g id="Group_44" data-name="Group 44" transform="translate(165.707 57.695)" opacity="0.2">
      <rect id="Rectangle_879" data-name="Rectangle 879" width="140.134" height="5.486" fill="#313896"/>
    </g>
    <rect id="Rectangle_880" data-name="Rectangle 880" width="18.619" height="5.486" transform="translate(287.222 57.695)" fill="#313896"/>
    <g id="Group_45" data-name="Group 45" transform="translate(147.59 88.949)" opacity="0.2">
      <rect id="Rectangle_881" data-name="Rectangle 881" width="176.371" height="63.166" fill="#313896"/>
    </g>
    <rect id="Rectangle_882" data-name="Rectangle 882" width="101.733" height="5.486" transform="translate(197.087 111.97)" fill="#f6f7f9"/>
    <rect id="Rectangle_883" data-name="Rectangle 883" width="52.779" height="5.486" transform="translate(197.087 123.607)" fill="#f6f7f9"/>
    <rect id="Rectangle_884" data-name="Rectangle 884" width="18.619" height="5.486" transform="translate(287.222 140.228)" fill="#313896"/>
    <circle id="Ellipse_66" data-name="Ellipse 66" cx="9.972" cy="9.972" r="9.972" transform="translate(158.896 110.558)" fill="#f6f7f9"/>
    <g id="Group_46" data-name="Group 46" transform="translate(147.59 169.82)" opacity="0.2">
      <rect id="Rectangle_885" data-name="Rectangle 885" width="176.371" height="63.166" fill="#313896"/>
    </g>
    <rect id="Rectangle_886" data-name="Rectangle 886" width="101.733" height="5.486" transform="translate(197.087 192.842)" fill="#f6f7f9"/>
    <rect id="Rectangle_887" data-name="Rectangle 887" width="52.779" height="5.486" transform="translate(197.087 204.479)" fill="#f6f7f9"/>
    <rect id="Rectangle_888" data-name="Rectangle 888" width="18.619" height="5.486" transform="translate(287.222 221.1)" fill="#313896"/>
    <circle id="Ellipse_67" data-name="Ellipse 67" cx="9.972" cy="9.972" r="9.972" transform="translate(158.896 191.43)" fill="#f6f7f9"/>
    <g id="Group_47" data-name="Group 47" transform="translate(147.59 250.692)" opacity="0.2">
      <rect id="Rectangle_889" data-name="Rectangle 889" width="176.371" height="63.166" fill="#313896"/>
    </g>
    <rect id="Rectangle_890" data-name="Rectangle 890" width="101.733" height="5.486" transform="translate(197.087 273.713)" fill="#f6f7f9"/>
    <rect id="Rectangle_891" data-name="Rectangle 891" width="52.779" height="5.486" transform="translate(197.087 285.351)" fill="#f6f7f9"/>
    <rect id="Rectangle_892" data-name="Rectangle 892" width="18.619" height="5.486" transform="translate(287.222 301.972)" fill="#313896"/>
    <circle id="Ellipse_68" data-name="Ellipse 68" cx="9.972" cy="9.972" r="9.972" transform="translate(158.896 272.301)" fill="#f6f7f9"/>
    <path id="Path_1119" data-name="Path 1119" d="M184.433,315.27c-1.692,7.7-4.743,17.185-4.743,17.185,3.016,3.519,16.175,4.149,16.175,4.149l.022-.026h.205c.092.485.2.953.324,1.4q-.035.66-.066,1.338a3.65,3.65,0,0,0-.188,1.644,3.723,3.723,0,0,0,.1.367c-.315,6.968-.538,14.4-.345,18.693a17.994,17.994,0,0,0,.372,3.62,13.033,13.033,0,0,1,.385,2.776c.214,6.282-1.312,16.835-1.312,16.835s.039.144.061.219c-.026.179-.044.284-.044.284a4.979,4.979,0,0,1,.223,1.312c.114,5.3-2.925,16.827-2.925,16.827s-2.457,17.727-2.107,24.481a15.572,15.572,0,0,0,.118,1.613c.752,5.618,1.749,21.3,1.749,21.3a7.041,7.041,0,0,0,.573.739c-.087.35-.192.7-.306,1.053a29.552,29.552,0,0,0-1.465,10.982c.031.437.066.914.109,1.395.5,5.788,14.505,2.186,15.428,1.513.315-.232.092-2.33-.341-4.992l14.427,3.563s10.23,1.513,15.1,0,4.7-5.683-2.265-6.37c-4.874-.472-8.743-5.01-10.654-7.69.739-2.015,6.278-17.312,7.3-26.781a134.063,134.063,0,0,1,3.231-18.151l1.089-14.09,1.932-8.306,2.3-10.982c2.6-8.053,3.4-21.513,3.4-21.513l2.011-13.207a25.564,25.564,0,0,0,.468-4.354,48.811,48.811,0,0,1,5.574,1.491c3.148-2.448-1.312-26.038-1.312-26.038s-2.146-14.9-3.965-28.482a27.835,27.835,0,0,1,8.682.354L280.16,280a13.43,13.43,0,0,0,1.416-2.308h1.132a2.427,2.427,0,0,0,.328-.638l.468.087a39.061,39.061,0,0,1,5.054,1.534s8.332,1.005,7.073-7.734c-.936-6.514-8.35-4.149-12.057-2.531l-.468.214c-.035-.245-.057-.385-.057-.385l-1.194.219a5.775,5.775,0,0,0-.249-.533s-12.958-.5-23.463-2.077a31.508,31.508,0,0,1-15.769-7.76c-1.84-9.342-7.187-12.18-7.187-12.18a16,16,0,0,1-7.288-2.466,15.4,15.4,0,0,1-1.7-1.18l-.289.166-.035-.031c1.779-1.652,3.624-3.169,5.246-4.442l.73-.564A16.206,16.206,0,0,0,245.086,214.7c-.07-.157-.153-.315-.227-.468a3.637,3.637,0,0,0,3.209-3.161c.162-1.832-1.1-3.782-.275-5.425a5.276,5.276,0,0,0,.393-.765,2.068,2.068,0,0,0,.061-.769,5.416,5.416,0,0,0-2.186-3.934c-1.875-1.36-3.541-.669-5.591-.787a67.5,67.5,0,0,1-7.052-1.093,24.384,24.384,0,0,0-8.1-.267,10.439,10.439,0,0,0-6.846,4.009c-.665.953-1.115,2.042-1.749,3.025-.713,1.137-1.635,2.12-2.453,3.178a9.64,9.64,0,0,0-2.383,6.16c.061,1.272.512,2.5.6,3.768a22.945,22.945,0,0,1-.262,3.541,15.5,15.5,0,0,0,.258,4.516,2.8,2.8,0,0,0,.516,1.285,2.741,2.741,0,0,0,1.137.73,10.151,10.151,0,0,0,1.395.437,19.974,19.974,0,0,1-1.954,3.519l-.708-.734-1.915,2.99-.074-.2c-.092.188-.2.367-.306.546l-.2-.546a11.5,11.5,0,0,1-4.289,4.293c-5.01,3.148-12,4.45-12,4.45-11.261,1.635-9.181,13.268-9.181,13.268s-4.778,20.757-6.12,33.588,3.646,21.006,3.646,21.006Zm53.706-37.937c.437,1.43.822,2.785,1.15,3.969l-.21.083c-.24-1.1-.568-2.5-.927-4.053ZM225.75,242.5l-.061.039.057-.057ZM206.326,459.4c-.551-3.292-1.373-7.266-1.88-9.639.358-1.167.835-2.951,1.395-5.6,1.259-5.95,2.011-27,2.011-27l2.938-17.688a58.34,58.34,0,0,0,3.27-14.864c1.08-2.85,3.576-20.3,3.974-23.1-.114,1.937-.385,6.842-.529,12.289v.149c-.109,4.114-.14,8.525,0,12.184h0c.039,1.027.092,2,.162,2.9.022.232.035.472.044.708.315,9.487-3.935,21.421-3.935,21.421s-1.893,8.848-1.613,13.793a9.1,9.1,0,0,0,.376,2.623,4.638,4.638,0,0,1,.214,1.215c.079,4.73-2.715,14.658-3.427,17.093C207.769,449.083,206.611,457.263,206.326,459.4Z" transform="translate(-112.936 -116.623)" fill="url(#linear-gradient-2)"/>
    <path id="Path_1120" data-name="Path 1120" d="M257.935,763s4.9,8.892,11.8,9.556,7.065,4.809,2.243,6.317-14.96,0-14.96,0L242.56,775.3s1.749-14.3,4.07-15.043S257.935,763,257.935,763Z" transform="translate(-148.96 -433.133)" fill="#4c4c78"/>
    <path id="Path_1121" data-name="Path 1121" d="M221.059,765.679s3.659,16.455,2.745,17.124-14.794,4.236-15.3-1.5c-.044-.477-.079-.94-.1-1.382a29.133,29.133,0,0,1,1.451-10.885,9.019,9.019,0,0,0,.564-3.357C210.174,763.371,221.059,765.679,221.059,765.679Z" transform="translate(-129.706 -435.667)" fill="#4c4c78"/>
    <path id="Path_1122" data-name="Path 1122" d="M247.79,264.76s11.218,27.542,9.224,18.711c-1.312-5.867,7.218-13.653,13.115-18.23,3-2.334,5.329-3.834,5.329-3.834s-21.071-24.56-19.576-13.963a15.956,15.956,0,0,1-1.15,8.551,22.418,22.418,0,0,1-6.942,8.765Z" transform="translate(-151.903 -143.071)" fill="#ffb9b9"/>
    <path id="Path_1123" data-name="Path 1123" d="M411.77,366.789a6.447,6.447,0,0,1,2.566.162,37.859,37.859,0,0,1,5.006,1.521s8.263,1,6.995-7.664c-.927-6.461-8.271-4.118-11.948-2.509-1.25.546-2.081,1.01-2.081,1.01Z" transform="translate(-244.197 -205.961)" fill="#ffb9b9"/>
    <path id="Path_1124" data-name="Path 1124" d="M411.77,369.07a6.448,6.448,0,0,1,2.566.162c.9-2.269.214-7.642.07-8.652-1.25.546-2.081,1.01-2.081,1.01Z" transform="translate(-244.197 -208.242)" opacity="0.1"/>
    <path id="Path_1125" data-name="Path 1125" d="M410.815,360.618l2.16-.4s1.11,7.432-.337,9.373H410.15Z" transform="translate(-243.285 -208.039)" fill="#cbcdda"/>
    <path id="Path_1126" data-name="Path 1126" d="M310.246,390.217s6.61-3.934,7.4,1.036,1.832,13.508,1.832,13.508l1.827,10.846,2.369,21.736-.332,3.7s-7.025-2.352-8.686-1.539-2.995-9.119-2.995-9.119l-2.741-10.308-.437-21.858Z" transform="translate(-186.062 -224.091)" fill="#4c4c78"/>
    <path id="Path_1127" data-name="Path 1127" d="M310.246,390.217s6.61-3.934,7.4,1.036,1.832,13.508,1.832,13.508l1.827,10.846,2.369,21.736-.332,3.7s-7.025-2.352-8.686-1.539-2.995-9.119-2.995-9.119l-2.741-10.308-.437-21.858Z" transform="translate(-186.062 -224.091)" opacity="0.1"/>
    <path id="Path_1128" data-name="Path 1128" d="M320.65,333.56s6.859,7.729,17.268,9.29,23.253,2.055,23.253,2.055a11.272,11.272,0,0,1-1.434,11.97l-26.182-.577s-5.8-1.259-10.287,0Z" transform="translate(-192.911 -193.034)" fill="#4c4c78"/>
    <path id="Path_1129" data-name="Path 1129" d="M320.65,333.56s6.859,7.729,17.268,9.29,23.253,2.055,23.253,2.055a11.272,11.272,0,0,1-1.434,11.97l-26.182-.577s-5.8-1.259-10.287,0Z" transform="translate(-192.911 -193.034)" opacity="0.05"/>
    <path id="Path_1130" data-name="Path 1130" d="M450.84,406.14" transform="translate(-266.186 -233.885)" fill="none" stroke="blue" stroke-miterlimit="10" stroke-width="1"/>
    <path id="Path_1131" data-name="Path 1131" d="M266.183,255.776c2.557,5.469,6.995,9.5,13.447,9.5h.839c3-2.334,5.329-3.834,5.329-3.834s-21.072-24.56-19.576-13.963C266.681,250.705,267.21,253.341,266.183,255.776Z" transform="translate(-162.235 -143.094)" opacity="0.1"/>
    <path id="Path_1132" data-name="Path 1132" d="M260.25,233.057a16.027,16.027,0,1,0,4.7-11.366A16.062,16.062,0,0,0,260.25,233.057Z" transform="translate(-158.916 -127.431)" fill="#ffb9b9"/>
    <path id="Path_1133" data-name="Path 1133" d="M237.8,372.585s35.822,3.161,37.159-1.412S271.3,354.22,271.3,354.22l1.6-17.29.061-.665s-4.477-18.7-4.328-20.18c.153-1.342-7.226-17.05-8.743-20.245l-.275-.577-.284.166-.122.074-1.749,1.023-6.938-1.635-8.35-4.372-.791,47.826Z" transform="translate(-146.281 -168.81)" fill="#cbcdda"/>
    <path id="Path_1134" data-name="Path 1134" d="M278.414,302.554a2.855,2.855,0,0,1,3.41,1.788,25.2,25.2,0,0,0,1.312,3.06l.957,5.683,1.749,8.975,1.285,39.782-.577,7.082-3.2-5.683-.581-37.159v-4.634a33.535,33.535,0,0,0-2.667-11.611l-.437-1.045-2.785-3.572Z" transform="translate(-168.276 -175.537)" opacity="0.1"/>
    <path id="Path_1135" data-name="Path 1135" d="M279.543,301.414a2.855,2.855,0,0,1,3.41,1.788,25.209,25.209,0,0,0,1.312,3.06l.957,5.683,1.749,8.975,1.29,39.782-.586,7.065-3.2-5.683-.581-37.159v-4.634a33.532,33.532,0,0,0-2.662-11.611l-.437-1.045L278,304.077Z" transform="translate(-168.907 -174.895)" fill="#4c4c78"/>
    <path id="Path_1136" data-name="Path 1136" d="M253.3,278s8.477,8.979,11.467,10.055c0,0-1.5,6.815-2.99,8.144,0,0-8.9-9.071-10.492-9.806l-1.311-3.231Z" transform="translate(-153.13 -161.763)" opacity="0.1"/>
    <path id="Path_1137" data-name="Path 1137" d="M253.3,276.9s8.477,8.979,11.467,10.055c0,0-1.5,6.815-2.99,8.144,0,0-8.9-9.071-10.492-9.806l-1.311-3.231Z" transform="translate(-153.13 -161.144)" fill="#cbcdda"/>
    <path id="Path_1138" data-name="Path 1138" d="M286.58,301.35l.087.232,2.719,7.283,4.853,13.753s.048.14.131.4c.8,2.5,5.132,16.075,5.985,20.022l.061-.665s-4.472-18.72-4.324-20.2c.153-1.342-7.226-17.05-8.743-20.245-.24-.166-.437-.306-.56-.411Z" transform="translate(-173.736 -174.905)" opacity="0.1"/>
    <path id="Path_1139" data-name="Path 1139" d="M287.71,301.33l2.807,7.524,4.857,13.753s.048.14.131.4c.852,2.667,5.709,17.88,6.12,20.665.437,3.06,6.558,19.576,6.558,19.576l3.5,28.613c3.117-2.431-1.312-25.793-1.312-25.793s-4.988-34.659-6.168-46.187-7.576-14.938-7.576-14.938A15.872,15.872,0,0,1,289.4,302.5,15.42,15.42,0,0,1,287.71,301.33Z" transform="translate(-174.372 -174.894)" fill="#4c4c78"/>
    <path id="Path_1140" data-name="Path 1140" d="M207.033,576.294c.748,5.57,1.749,21.115,1.749,21.115,3.5,5.246,11.222,2.409,11.222,2.409s.826-1.583,2.072-7.484,2-26.763,2-26.763l2.912-17.535a57.819,57.819,0,0,0,3.239-14.711c1.163-3.06,3.991-23.275,3.991-23.275s-1.167,18.121-.437,27.677-3.821,22.444-3.821,22.444-2.579,12.053-1.246,15.79-3.327,19.2-3.327,19.2c.415,4.49,13.631,2.658,13.631,2.658s6.234-16.7,7.314-26.763a132.832,132.832,0,0,1,3.2-17.994L250.61,539.1l1.915-8.227,2.286-10.885c2.575-7.983,3.366-21.321,3.366-21.321l1.993-13.089c1.311-6.474-.38-14.064-1.517-18.051-.49-1.718-.874-2.772-.874-2.772-1.145.813-7.7,1.749-11.1,2.54a19.306,19.306,0,0,1-5.683.437,126.269,126.269,0,0,1-25.312-4.63l-.874-.262-.175,1.5-.411,3.567-.726,6.326s-2.247,33.745-.918,38.318-.914,19.93-.914,19.93c1.246,3.646-2.658,18.466-2.658,18.466S206.285,570.729,207.033,576.294Z" transform="translate(-128.891 -265.797)" opacity="0.1"/>
    <path id="Path_1141" data-name="Path 1141" d="M207.034,575.154c.748,5.57,1.749,21.115,1.749,21.115,3.5,5.246,11.222,2.409,11.222,2.409s.826-1.583,2.072-7.484,2-26.763,2-26.763l2.912-17.535a57.82,57.82,0,0,0,3.239-14.711c1.163-3.06,3.991-23.275,3.991-23.275s-1.167,18.121-.437,27.677-3.821,22.444-3.821,22.444-2.579,12.053-1.246,15.791-3.327,19.2-3.327,19.2c.415,4.49,13.631,2.658,13.631,2.658s6.234-16.7,7.314-26.763a132.841,132.841,0,0,1,3.2-17.994l1.075-13.963,1.915-8.228,2.286-10.885c2.575-7.983,3.366-21.321,3.366-21.321l1.993-13.093c1.312-6.47-.38-14.059-1.517-18.046-.49-1.718-.874-2.772-.874-2.772-1.145.813-7.7,1.749-11.1,2.54a19.3,19.3,0,0,1-5.683.437,126.264,126.264,0,0,1-25.312-4.63l-.874-.262-.175,1.5-.411,3.567-.726,6.326s-2.247,33.745-.918,38.318-.9,19.935-.9,19.935c1.246,3.646-2.658,18.466-2.658,18.466S206.286,569.589,207.034,575.154Z" transform="translate(-128.892 -265.156)" fill="#474463"/>
    <path id="Path_1142" data-name="Path 1142" d="M260.25,233.029a16.027,16.027,0,0,0,2.129,7.987,8.469,8.469,0,0,0,7.056-1.7,34.588,34.588,0,0,0,3.209-3.978,23.381,23.381,0,0,1,2.3-2.265,7.106,7.106,0,0,1,1.81-1.311,2.457,2.457,0,0,1,2.186-.026c.874.494,1.189,1.591,1.687,2.47a3.3,3.3,0,0,0,1.84,1.6,1.95,1.95,0,0,0,2.186-.748c.542-.936.144-2.4,1.058-2.964a5.515,5.515,0,0,1,.743-.3c1.176-.533,1.312-2.112,1.408-3.4a2.126,2.126,0,0,1,.721-1.692,3.25,3.25,0,0,1,1.862-.153,2.628,2.628,0,0,0,.56-.048,16.062,16.062,0,0,0-30.746,6.509Z" transform="translate(-158.916 -127.403)" opacity="0.1"/>
    <path id="Path_1143" data-name="Path 1143" d="M289.195,202.914a5.333,5.333,0,0,1,2.164,3.882,2.042,2.042,0,0,1-.057.765,5.687,5.687,0,0,1-.389.761c-.822,1.626.437,3.559.271,5.377a3.576,3.576,0,0,1-3.5,3.139,3.421,3.421,0,0,0-1.862.153,2.073,2.073,0,0,0-.721,1.692c-.1,1.29-.232,2.868-1.408,3.4a6.17,6.17,0,0,0-.743.306c-.914.568-.512,2.033-1.058,2.96a1.945,1.945,0,0,1-2.186.752,3.314,3.314,0,0,1-1.841-1.6c-.5-.874-.8-1.976-1.687-2.47a2.47,2.47,0,0,0-2.186.022,7.125,7.125,0,0,0-1.81,1.312,23.89,23.89,0,0,0-2.3,2.264,33.81,33.81,0,0,1-3.213,3.978c-2.413,2.12-6.12,2.33-9.093,1.124a2.781,2.781,0,0,1-1.128-.721,2.824,2.824,0,0,1-.525-1.294,15.536,15.536,0,0,1-.258-4.477,22.591,22.591,0,0,0,.262-3.5c-.083-1.259-.533-2.474-.595-3.733a9.631,9.631,0,0,1,2.361-6.12c.813-1.049,1.727-2.024,2.431-3.148.612-.975,1.058-2.055,1.718-3a10.5,10.5,0,0,1,6.785-3.974,23.745,23.745,0,0,1,8.031.262,66.063,66.063,0,0,0,6.995,1.084C285.684,202.227,287.337,201.541,289.195,202.914Z" transform="translate(-156.149 -118.153)" fill="#472727"/>
    <path id="Path_1144" data-name="Path 1144" d="M287.71,301.33l2.807,7.524,4.857,13.753s.048.14.131.4h0l-6.12-20.508A15.424,15.424,0,0,1,287.71,301.33Z" transform="translate(-174.372 -174.894)" opacity="0.1"/>
    <path id="Path_1145" data-name="Path 1145" d="M218.306,493.589s-.293,9.1,2.16,11.366l6.523-12.3L221.506,490Z" transform="translate(-135.303 -281.084)" fill="#ffb9b9"/>
    <path id="Path_1146" data-name="Path 1146" d="M183.48,380.546c2.995,3.5,16.018,4.114,16.018,4.114l12.91-20.32s3.06-2.12,8.783-11.659,5.548-16.892,5.246-22.379-3.935-21.259-3.935-21.259c-.555-3.55-8.595-25.793-8.595-25.793a11.4,11.4,0,0,1-4.254,4.254c-4.962,3.108-11.9,4.38-11.9,4.38-11.161,1.622-9.1,13.154-9.1,13.154s-.136,44.84.564,50.2S183.48,380.546,183.48,380.546Z" transform="translate(-115.708 -164.718)" opacity="0.1"/>
    <path id="Path_1147" data-name="Path 1147" d="M189.49,483.24l.372,3.322L194.4,484.9l3.322-5.027-2.492-1.954Z" transform="translate(-106.653 -268.991)" fill="#cbcdda"/>
    <path id="Path_1148" data-name="Path 1148" d="M218.3,466.86l2.369.24,22.855,2.282a37.024,37.024,0,0,0,10.982-.538l10.593-2.12c-.49-1.718-.874-2.772-.874-2.772-1.145.813-7.7,1.749-11.1,2.54a19.3,19.3,0,0,1-5.683.437A126.27,126.27,0,0,1,222.1,462.3l-1.032,1.233Z" transform="translate(-135.306 -265.493)" opacity="0.1"/>
    <g id="Group_48" data-name="Group 48" transform="translate(77.969 196.544)" opacity="0.1">
      <path id="Path_1149" data-name="Path 1149" d="M322.75,466.207a2.4,2.4,0,0,0,.223-.127l.022.061Z" transform="translate(-272.062 -464.165)"/>
      <path id="Path_1150" data-name="Path 1150" d="M208.949,549.8s3.908-14.82,2.658-18.466c0,0,2.247-15.358.914-19.931s.918-38.318.918-38.318l.739-6.326.437-3.567.175-1.5s.3.1.874.262l.529.157-.122.586-.415,3.567-.739,6.326s-2.243,33.741-.918,38.318-.909,19.93-.909,19.93c1.246,3.646-2.658,18.466-2.658,18.466s-2.745,19.786-2,25.356,1.749,21.111,1.749,21.111c2.549,3.83,7.362,3.349,9.766,2.811-.026.066-.044.1-.044.1s-7.729,2.824-11.222-2.409c0,0-1-15.546-1.749-21.115S208.949,549.8,208.949,549.8Z" transform="translate(-206.804 -461.7)"/>
      <path id="Path_1151" data-name="Path 1151" d="M252.47,634.96c-1.312-3.738,1.25-15.79,1.25-15.79s4.564-12.883,3.816-22.444c-.31-3.983-.289-9.447-.157-14.47,1.062-6.47,2.072-13.705,2.072-13.705s-1.167,18.116-.415,27.677-3.821,22.444-3.821,22.444-2.579,12.053-1.246,15.79-3.327,19.2-3.327,19.2c.332,3.6,8.875,3.139,12.241,2.811l-.127.345s-13.216,1.832-13.627-2.658C249.147,654.161,253.8,638.694,252.47,634.96Z" transform="translate(-230.626 -521.839)"/>
    </g>
    <path id="Path_1152" data-name="Path 1152" d="M182.34,380.546c2.995,3.5,16.018,4.114,16.018,4.114l12.905-20.32s3.06-2.12,8.787-11.659S225.6,335.789,225.3,330.3s-3.934-21.259-3.934-21.259c-.555-3.55-8.595-25.793-8.595-25.793a11.4,11.4,0,0,1-4.254,4.254c-4.966,3.108-11.9,4.38-11.9,4.38-11.161,1.622-9.1,13.154-9.1,13.154s-.122,44.823.564,50.183S182.34,380.546,182.34,380.546Z" transform="translate(-115.066 -164.718)" fill="#4c4c78"/>
    <path id="Path_1153" data-name="Path 1153" d="M244.063,294.271l2.807,1.058L245,296.64,258.953,330.3c-.324-5.486-3.935-21.259-3.935-21.259-.555-3.55-8.595-25.793-8.595-25.793a11.4,11.4,0,0,1-4.254,4.254Z" transform="translate(-148.74 -164.718)" opacity="0.1"/>
    <path id="Path_1154" data-name="Path 1154" d="M189.569,428.787l-14.278-3.677-1.871,5.8,14.588,3.554Z" transform="translate(-97.608 -239.267)" opacity="0.1"/>
    <path id="Path_1155" data-name="Path 1155" d="M198.116,312.812s6.483,6.12,4.053,19.7-6.356,28.363-6.356,28.363l10.558,29.238s-7.358,7.668-10.973,8.6l-10.536-23.375s-4.923-8.105-3.615-20.818,6.046-33.29,6.046-33.29S187.27,308.7,198.116,312.812Z" transform="translate(-114.326 -180.89)" opacity="0.1"/>
    <path id="Path_1156" data-name="Path 1156" d="M196.957,312.812s6.483,6.12,4.053,19.7-6.356,28.363-6.356,28.363l10.523,29.238s-7.344,7.668-10.969,8.6l-10.536-23.375s-4.923-8.105-3.615-20.818,6.046-33.29,6.046-33.29S186.1,308.7,196.957,312.812Z" transform="translate(-113.656 -180.89)" fill="#4c4c78"/>
    <path id="Path_1157" data-name="Path 1157" d="M227.169,492.061s-8.228,11.366-7.6,14.427S222.6,507.9,222.6,507.9l3.257-4.45,2.912-8.306S228.48,491.571,227.169,492.061Z" transform="translate(-135.999 -282.217)" opacity="0.1"/>
    <path id="Path_1158" data-name="Path 1158" d="M229.493,492.061s-8.232,11.366-7.607,14.427,3.034,1.412,3.034,1.412l3.239-4.446,2.912-8.306S230.787,491.571,229.493,492.061Z" transform="translate(-137.305 -282.218)" opacity="0.1"/>
    <path id="Path_1159" data-name="Path 1159" d="M228.349,492.061s-8.228,11.366-7.6,14.427,3.034,1.412,3.034,1.412l3.239-4.446,2.912-8.306S229.647,491.571,228.349,492.061Z" transform="translate(-136.663 -282.218)" fill="#474463"/>
  </g>
</svg>
